<svg width="625" height="236" viewBox="0 0 625 236" fill="none" xmlns="http://www.w3.org/2000/svg">
<g filter="url(#filter0_d_1_16)">
<rect x="80" y="87" width="458" height="62" rx="20" fill="white"/>
<path d="M108.024 112.786V116.98H112.596V118.33H108.024V122.65H113.136V124H106.386V111.436H113.136V112.786H108.024ZM120.421 113.956C121.621 113.956 122.593 114.322 123.337 115.054C124.081 115.774 124.453 116.818 124.453 118.186V124H122.833V118.42C122.833 117.436 122.587 116.686 122.095 116.17C121.603 115.642 120.931 115.378 120.079 115.378C119.215 115.378 118.525 115.648 118.009 116.188C117.505 116.728 117.253 117.514 117.253 118.546V124H115.615V114.136H117.253V115.54C117.577 115.036 118.015 114.646 118.567 114.37C119.131 114.094 119.749 113.956 120.421 113.956ZM129.126 115.486V121.3C129.126 121.78 129.228 122.122 129.432 122.326C129.636 122.518 129.99 122.614 130.494 122.614H131.7V124H130.224C129.312 124 128.628 123.79 128.172 123.37C127.716 122.95 127.488 122.26 127.488 121.3V115.486H126.21V114.136H127.488V111.652H129.126V114.136H131.7V115.486H129.126ZM142.685 118.69C142.685 119.002 142.667 119.332 142.631 119.68H134.747C134.807 120.652 135.137 121.414 135.737 121.966C136.349 122.506 137.087 122.776 137.951 122.776C138.659 122.776 139.247 122.614 139.715 122.29C140.195 121.954 140.531 121.51 140.723 120.958H142.487C142.223 121.906 141.695 122.68 140.903 123.28C140.111 123.868 139.127 124.162 137.951 124.162C137.015 124.162 136.175 123.952 135.431 123.532C134.699 123.112 134.123 122.518 133.703 121.75C133.283 120.97 133.073 120.07 133.073 119.05C133.073 118.03 133.277 117.136 133.685 116.368C134.093 115.6 134.663 115.012 135.395 114.604C136.139 114.184 136.991 113.974 137.951 113.974C138.887 113.974 139.715 114.178 140.435 114.586C141.155 114.994 141.707 115.558 142.091 116.278C142.487 116.986 142.685 117.79 142.685 118.69ZM140.993 118.348C140.993 117.724 140.855 117.19 140.579 116.746C140.303 116.29 139.925 115.948 139.445 115.72C138.977 115.48 138.455 115.36 137.879 115.36C137.051 115.36 136.343 115.624 135.755 116.152C135.179 116.68 134.849 117.412 134.765 118.348H140.993ZM146.485 115.738C146.773 115.174 147.181 114.736 147.709 114.424C148.249 114.112 148.903 113.956 149.671 113.956V115.648H149.239C147.403 115.648 146.485 116.644 146.485 118.636V124H144.847V114.136H146.485V115.738ZM160.663 124.162C159.739 124.162 158.899 123.952 158.143 123.532C157.399 123.112 156.811 122.518 156.379 121.75C155.959 120.97 155.749 120.07 155.749 119.05C155.749 118.042 155.965 117.154 156.397 116.386C156.841 115.606 157.441 115.012 158.197 114.604C158.953 114.184 159.799 113.974 160.735 113.974C161.671 113.974 162.517 114.184 163.273 114.604C164.029 115.012 164.623 115.6 165.055 116.368C165.499 117.136 165.721 118.03 165.721 119.05C165.721 120.07 165.493 120.97 165.037 121.75C164.593 122.518 163.987 123.112 163.219 123.532C162.451 123.952 161.599 124.162 160.663 124.162ZM160.663 122.722C161.251 122.722 161.803 122.584 162.319 122.308C162.835 122.032 163.249 121.618 163.561 121.066C163.885 120.514 164.047 119.842 164.047 119.05C164.047 118.258 163.891 117.586 163.579 117.034C163.267 116.482 162.859 116.074 162.355 115.81C161.851 115.534 161.305 115.396 160.717 115.396C160.117 115.396 159.565 115.534 159.061 115.81C158.569 116.074 158.173 116.482 157.873 117.034C157.573 117.586 157.423 118.258 157.423 119.05C157.423 119.854 157.567 120.532 157.855 121.084C158.155 121.636 158.551 122.05 159.043 122.326C159.535 122.59 160.075 122.722 160.663 122.722ZM176.622 114.136V124H174.984V122.542C174.672 123.046 174.234 123.442 173.67 123.73C173.118 124.006 172.506 124.144 171.834 124.144C171.066 124.144 170.376 123.988 169.764 123.676C169.152 123.352 168.666 122.872 168.306 122.236C167.958 121.6 167.784 120.826 167.784 119.914V114.136H169.404V119.698C169.404 120.67 169.65 121.42 170.142 121.948C170.634 122.464 171.306 122.722 172.158 122.722C173.034 122.722 173.724 122.452 174.228 121.912C174.732 121.372 174.984 120.586 174.984 119.554V114.136H176.622ZM181.026 115.738C181.314 115.174 181.722 114.736 182.25 114.424C182.79 114.112 183.444 113.956 184.212 113.956V115.648H183.78C181.944 115.648 181.026 116.644 181.026 118.636V124H179.388V114.136H181.026V115.738ZM199.902 118.69C199.902 119.002 199.884 119.332 199.848 119.68H191.964C192.024 120.652 192.354 121.414 192.954 121.966C193.566 122.506 194.304 122.776 195.168 122.776C195.876 122.776 196.464 122.614 196.932 122.29C197.412 121.954 197.748 121.51 197.94 120.958H199.704C199.44 121.906 198.912 122.68 198.12 123.28C197.328 123.868 196.344 124.162 195.168 124.162C194.232 124.162 193.392 123.952 192.648 123.532C191.916 123.112 191.34 122.518 190.92 121.75C190.5 120.97 190.29 120.07 190.29 119.05C190.29 118.03 190.494 117.136 190.902 116.368C191.31 115.6 191.88 115.012 192.612 114.604C193.356 114.184 194.208 113.974 195.168 113.974C196.104 113.974 196.932 114.178 197.652 114.586C198.372 114.994 198.924 115.558 199.308 116.278C199.704 116.986 199.902 117.79 199.902 118.69ZM198.21 118.348C198.21 117.724 198.072 117.19 197.796 116.746C197.52 116.29 197.142 115.948 196.662 115.72C196.194 115.48 195.672 115.36 195.096 115.36C194.268 115.36 193.56 115.624 192.972 116.152C192.396 116.68 192.066 117.412 191.982 118.348H198.21ZM213.926 113.956C214.694 113.956 215.378 114.118 215.978 114.442C216.578 114.754 217.052 115.228 217.4 115.864C217.748 116.5 217.922 117.274 217.922 118.186V124H216.302V118.42C216.302 117.436 216.056 116.686 215.564 116.17C215.084 115.642 214.43 115.378 213.602 115.378C212.75 115.378 212.072 115.654 211.568 116.206C211.064 116.746 210.812 117.532 210.812 118.564V124H209.192V118.42C209.192 117.436 208.946 116.686 208.454 116.17C207.974 115.642 207.32 115.378 206.492 115.378C205.64 115.378 204.962 115.654 204.458 116.206C203.954 116.746 203.702 117.532 203.702 118.564V124H202.064V114.136H203.702V115.558C204.026 115.042 204.458 114.646 204.998 114.37C205.55 114.094 206.156 113.956 206.816 113.956C207.644 113.956 208.376 114.142 209.012 114.514C209.648 114.886 210.122 115.432 210.434 116.152C210.71 115.456 211.166 114.916 211.802 114.532C212.438 114.148 213.146 113.956 213.926 113.956ZM219.997 119.032C219.997 118.024 220.201 117.142 220.609 116.386C221.017 115.618 221.575 115.024 222.283 114.604C223.003 114.184 223.801 113.974 224.677 113.974C225.541 113.974 226.291 114.16 226.927 114.532C227.563 114.904 228.037 115.372 228.349 115.936V114.136H230.005V124H228.349V122.164C228.025 122.74 227.539 123.22 226.891 123.604C226.255 123.976 225.511 124.162 224.659 124.162C223.783 124.162 222.991 123.946 222.283 123.514C221.575 123.082 221.017 122.476 220.609 121.696C220.201 120.916 219.997 120.028 219.997 119.032ZM228.349 119.05C228.349 118.306 228.199 117.658 227.899 117.106C227.599 116.554 227.191 116.134 226.675 115.846C226.171 115.546 225.613 115.396 225.001 115.396C224.389 115.396 223.831 115.54 223.327 115.828C222.823 116.116 222.421 116.536 222.121 117.088C221.821 117.64 221.671 118.288 221.671 119.032C221.671 119.788 221.821 120.448 222.121 121.012C222.421 121.564 222.823 121.99 223.327 122.29C223.831 122.578 224.389 122.722 225.001 122.722C225.613 122.722 226.171 122.578 226.675 122.29C227.191 121.99 227.599 121.564 227.899 121.012C228.199 120.448 228.349 119.794 228.349 119.05ZM233.619 112.534C233.307 112.534 233.043 112.426 232.827 112.21C232.611 111.994 232.503 111.73 232.503 111.418C232.503 111.106 232.611 110.842 232.827 110.626C233.043 110.41 233.307 110.302 233.619 110.302C233.919 110.302 234.171 110.41 234.375 110.626C234.591 110.842 234.699 111.106 234.699 111.418C234.699 111.73 234.591 111.994 234.375 112.21C234.171 112.426 233.919 112.534 233.619 112.534ZM234.411 114.136V124H232.773V114.136H234.411ZM238.84 110.68V124H237.202V110.68H238.84Z" fill="#71737A"/>
<rect width="70" height="62" transform="translate(468 87)" fill="url(#paint0_linear_1_16)"/>
<path d="M500.3 127.575L508.725 119.175C508.825 119.075 508.896 118.967 508.937 118.85C508.979 118.733 509 118.608 509 118.475C509 118.342 508.979 118.217 508.937 118.1C508.896 117.983 508.825 117.875 508.725 117.775L500.3 109.35C500.067 109.117 499.775 109 499.425 109C499.075 109 498.775 109.125 498.525 109.375C498.275 109.625 498.15 109.917 498.15 110.25C498.15 110.583 498.275 110.875 498.525 111.125L505.875 118.475L498.525 125.825C498.292 126.058 498.175 126.346 498.175 126.687C498.175 127.029 498.3 127.325 498.55 127.575C498.8 127.825 499.092 127.95 499.425 127.95C499.758 127.95 500.05 127.825 500.3 127.575Z" fill="white"/>
</g>
<defs>
<filter id="filter0_d_1_16" x="-7" y="0" width="632" height="236" filterUnits="userSpaceOnUse" color-interpolation-filters="sRGB">
<feFlood flood-opacity="0" result="BackgroundImageFix"/>
<feColorMatrix in="SourceAlpha" type="matrix" values="0 0 0 0 0 0 0 0 0 0 0 0 0 0 0 0 0 0 127 0" result="hardAlpha"/>
<feMorphology radius="15" operator="dilate" in="SourceAlpha" result="effect1_dropShadow_1_16"/>
<feOffset/>
<feGaussianBlur stdDeviation="36"/>
<feComposite in2="hardAlpha" operator="out"/>
<feColorMatrix type="matrix" values="0 0 0 0 0 0 0 0 0 0 0 0 0 0 0 0 0 0 0.1 0"/>
<feBlend mode="normal" in2="BackgroundImageFix" result="effect1_dropShadow_1_16"/>
<feBlend mode="normal" in="SourceGraphic" in2="effect1_dropShadow_1_16" result="shape"/>
</filter>
<linearGradient id="paint0_linear_1_16" x1="10.1205" y1="12.9167" x2="49.3183" y2="16.7855" gradientUnits="userSpaceOnUse">
<stop stop-color="#C22D75"/>
<stop offset="1" stop-color="#F15F79"/>
</linearGradient>
</defs>
</svg>
